<svg id="LOGO" xmlns="http://www.w3.org/2000/svg" width="245" height="82.083" viewBox="0 0 245 82.083">
  <g id="Calque_2" data-name="Calque 2" transform="translate(-42.98 -36.68)">
    <path id="Tracé_935" data-name="Tracé 935" d="M532.61,225.8V214.53h7.548v2.132h-5.006v2.358h4.457v2.132h-4.457V225.8Z" transform="translate(-410.565 -149.131)" fill="#1a171b"/>
    <path id="Tracé_936" data-name="Tracé 936" d="M597.652,218.767a6.933,6.933,0,0,1-.431,2.545,5.233,5.233,0,0,1-1.179,1.839,4.872,4.872,0,0,1-1.776,1.114,6.5,6.5,0,0,1-2.222.373,6.322,6.322,0,0,1-2.18-.373,5.043,5.043,0,0,1-1.789-1.114,5.194,5.194,0,0,1-1.2-1.839,6.8,6.8,0,0,1-.439-2.545,6.608,6.608,0,0,1,.455-2.547,5.433,5.433,0,0,1,1.227-1.847,5.087,5.087,0,0,1,1.791-1.13,6.152,6.152,0,0,1,2.138-.373,6.322,6.322,0,0,1,2.18.373,5.005,5.005,0,0,1,1.791,1.13,5.309,5.309,0,0,1,1.2,1.847A6.833,6.833,0,0,1,597.652,218.767Zm-8.605,0a5.11,5.11,0,0,0,.2,1.5,3.379,3.379,0,0,0,.585,1.148,2.584,2.584,0,0,0,.935.74,3.209,3.209,0,0,0,2.53,0,2.551,2.551,0,0,0,.943-.74,3.411,3.411,0,0,0,.586-1.148,5.112,5.112,0,0,0,.2-1.5,5.2,5.2,0,0,0-.2-1.5,3.422,3.422,0,0,0-.586-1.156,2.567,2.567,0,0,0-.943-.74,2.975,2.975,0,0,0-1.261-.26,2.875,2.875,0,0,0-1.269.268,2.684,2.684,0,0,0-.935.748,3.391,3.391,0,0,0-.585,1.156A5.146,5.146,0,0,0,589.047,218.767Z" transform="translate(-455.695 -147.738)" fill="#1a171b"/>
    <path id="Tracé_937" data-name="Tracé 937" d="M676.375,225.8q-1.09-1.938-2.359-3.822a38.734,38.734,0,0,0-2.7-3.562V225.8H668.81V214.53h2.067c.357.357.754.8,1.187,1.318s.875,1.075,1.326,1.666.9,1.2,1.342,1.839.862,1.245,1.253,1.83V214.53h2.522V225.8Z" transform="translate(-524.771 -149.131)" fill="#1a171b"/>
    <path id="Tracé_938" data-name="Tracé 938" d="M754.646,219.459a6.588,6.588,0,0,1-.455,2.553,4.754,4.754,0,0,1-1.292,1.805,5.49,5.49,0,0,1-2.044,1.069,9.447,9.447,0,0,1-2.7.358q-.683,0-1.594-.057a13.117,13.117,0,0,1-1.791-.236V213.972a15.18,15.18,0,0,1,1.831-.22q.951-.055,1.634-.057a9.826,9.826,0,0,1,2.627.323,5.4,5.4,0,0,1,2.027,1.024,4.581,4.581,0,0,1,1.3,1.791A6.782,6.782,0,0,1,754.646,219.459Zm-7.338,3.578c.12.011.258.019.415.024s.344.008.562.008a3.742,3.742,0,0,0,2.821-.959,3.681,3.681,0,0,0,.92-2.651,3.182,3.182,0,0,0-3.667-3.6h-.538a4,4,0,0,0-.52.04Z" transform="translate(-588.465 -148.431)" fill="#1a171b"/>
    <path id="Tracé_939" data-name="Tracé 939" d="M817.952,225.828q-.189-.586-.4-1.206c-.145-.413-.289-.824-.431-1.234h-4.4c-.142.412-.286.824-.428,1.237s-.276.815-.4,1.2H809.25q.636-1.821,1.208-3.367t1.117-2.907q.547-1.368,1.077-2.595t1.1-2.4h2.4q.556,1.171,1.095,2.4t1.087,2.595q.547,1.366,1.119,2.907t1.221,3.367Zm-3.049-8.72c-.057.161-.139.388-.249.669s-.233.609-.371.977-.3.777-.468,1.221-.347.909-.525,1.4h3.23q-.26-.735-.5-1.4t-.46-1.222l-.383-.969C815.06,217.489,814.971,217.27,814.9,217.108Z" transform="translate(-642.533 -149.156)" fill="#1a171b"/>
    <path id="Tracé_940" data-name="Tracé 940" d="M883.768,214.53v2.164h-3.4V225.8h-2.537v-9.109h-3.4V214.53Z" transform="translate(-697.188 -149.131)" fill="#1a171b"/>
    <path id="Tracé_941" data-name="Tracé 941" d="M942.13,214.53h2.538V225.8H942.13Z" transform="translate(-753.956 -149.131)" fill="#1a171b"/>
    <path id="Tracé_942" data-name="Tracé 942" d="M981.984,218.767a6.934,6.934,0,0,1-.431,2.545,5.237,5.237,0,0,1-1.18,1.839,4.859,4.859,0,0,1-1.776,1.114,6.486,6.486,0,0,1-2.22.373,6.322,6.322,0,0,1-2.18-.373,5.043,5.043,0,0,1-1.789-1.114,5.22,5.22,0,0,1-1.2-1.839,6.83,6.83,0,0,1-.439-2.545,6.576,6.576,0,0,1,.457-2.547,5.408,5.408,0,0,1,1.227-1.847,5.08,5.08,0,0,1,1.789-1.13,6.168,6.168,0,0,1,2.14-.373,6.322,6.322,0,0,1,2.18.373,4.98,4.98,0,0,1,1.789,1.13,5.313,5.313,0,0,1,1.2,1.847A6.833,6.833,0,0,1,981.984,218.767Zm-8.607,0a5.114,5.114,0,0,0,.2,1.5,3.41,3.41,0,0,0,.586,1.148,2.584,2.584,0,0,0,.935.74,3.209,3.209,0,0,0,2.53,0,2.564,2.564,0,0,0,.943-.74,3.41,3.41,0,0,0,.586-1.148,5.108,5.108,0,0,0,.2-1.5,5.194,5.194,0,0,0-.2-1.5,3.421,3.421,0,0,0-.586-1.156,2.583,2.583,0,0,0-.943-.74,2.975,2.975,0,0,0-1.261-.26,2.874,2.874,0,0,0-1.269.268,2.683,2.683,0,0,0-.935.748,3.421,3.421,0,0,0-.586,1.156,5.148,5.148,0,0,0-.2,1.489Z" transform="translate(-777.964 -147.738)" fill="#1a171b"/>
    <path id="Tracé_943" data-name="Tracé 943" d="M1060.715,225.8q-1.09-1.938-2.359-3.822a38.726,38.726,0,0,0-2.7-3.562V225.8h-2.506V214.53h2.075q.536.536,1.187,1.318t1.326,1.666q.675.89,1.342,1.839t1.253,1.83V214.53h2.522V225.8Z" transform="translate(-847.048 -149.131)" fill="#1a171b"/>
    <path id="Tracé_944" data-name="Tracé 944" d="M533.91,335.42q.294.538.677,1.326t.8,1.708c.278.614.552,1.239.823,1.88s.526,1.242.767,1.805l.765-1.805c.273-.646.547-1.266.824-1.88s.544-1.182.8-1.708.484-.969.678-1.326h2.309c.108.749.208,1.586.3,2.514s.173,1.893.244,2.9.136,2.009.2,3.018.11,1.957.161,2.847h-2.48q-.049-1.645-.131-3.58t-.244-3.9q-.294.686-.646,1.513t-.711,1.66q-.349.832-.677,1.586c-.218.505-.4.937-.555,1.292h-1.776c-.152-.357-.338-.788-.554-1.292s-.444-1.032-.678-1.586-.47-1.106-.709-1.66-.457-1.056-.646-1.513q-.161,1.968-.244,3.9t-.129,3.58H530.59q.065-1.334.161-2.847t.2-3.018q.107-1.5.244-2.9c.092-.929.192-1.765.3-2.514Z" transform="translate(-408.871 -250.5)" fill="#1a171b"/>
    <path id="Tracé_945" data-name="Tracé 945" d="M624.422,346.72c-.124-.392-.26-.794-.4-1.208s-.289-.824-.431-1.232h-4.4c-.142.41-.286.822-.428,1.235s-.276.815-.4,1.2H615.72q.636-1.821,1.208-3.368t1.117-2.907q.547-1.366,1.077-2.595t1.1-2.4h2.406q.554,1.172,1.095,2.4t1.083,2.59q.547,1.366,1.121,2.907t1.208,3.368ZM621.373,338c-.057.161-.139.386-.249.669s-.232.607-.371.977-.3.775-.468,1.219-.347.911-.525,1.4h3.23c-.173-.484-.341-.956-.5-1.4s-.323-.854-.46-1.224-.273-.694-.383-.969S621.441,338.16,621.373,338Z" transform="translate(-480.254 -250.525)" fill="#1a171b"/>
    <path id="Tracé_946" data-name="Tracé 946" d="M690.238,335.42v2.164h-3.4v9.111h-2.532v-9.111H680.9V335.42Z" transform="translate(-534.909 -250.5)" fill="#1a171b"/>
    <path id="Tracé_947" data-name="Tracé 947" d="M755.4,335.42h2.537v11.275H755.4v-4.783h-4.263v4.783H748.6V335.42h2.538v4.312H755.4Z" transform="translate(-591.677 -250.5)" fill="#1a171b"/>
    <path id="Tracé_948" data-name="Tracé 948" d="M822.35,324.222V312.948h7.614v2.132h-5.077v2.212H829.4v2.083h-4.512v2.71h5.45v2.132Zm5.857-14.234-2.677,2.261-1.114-.993,2.3-2.635Z" transform="translate(-653.518 -228.027)" fill="#1a171b"/>
    <path id="Tracé_949" data-name="Tracé 949" d="M884.5,335.42q.294.538.677,1.326t.807,1.708c.278.614.552,1.239.824,1.88s.528,1.242.767,1.805l.767-1.805c.271-.646.546-1.266.824-1.88s.544-1.182.8-1.708.484-.969.677-1.326h2.3c.108.749.208,1.586.3,2.514s.174,1.893.244,2.9.136,2.009.2,3.018.111,1.957.161,2.847h-2.476q-.048-1.645-.131-3.58t-.244-3.9q-.292.686-.646,1.513l-.711,1.66q-.352.832-.677,1.586l-.555,1.292h-1.776c-.161-.357-.338-.788-.556-1.292s-.442-1.032-.677-1.586-.471-1.106-.711-1.66-.457-1.056-.646-1.513q-.161,1.968-.244,3.9t-.131,3.58H881.18q.066-1.334.161-2.847t.2-3.018q.1-1.5.244-2.9c.092-.929.192-1.765.3-2.514Z" transform="translate(-702.848 -250.5)" fill="#1a171b"/>
    <path id="Tracé_950" data-name="Tracé 950" d="M975.012,346.72c-.126-.392-.26-.794-.405-1.208s-.287-.824-.431-1.232h-4.4l-.428,1.235c-.142.413-.276.815-.4,1.2H966.31q.638-1.821,1.208-3.368t1.117-2.907q.546-1.366,1.077-2.595t1.1-2.4h2.406q.554,1.172,1.095,2.4t1.087,2.595q.547,1.366,1.119,2.907t1.209,3.368ZM971.963,338c-.057.161-.141.386-.249.669s-.234.607-.373.977-.3.775-.467,1.219-.347.911-.525,1.4h3.23c-.173-.484-.339-.956-.5-1.4s-.323-.854-.46-1.224-.275-.694-.384-.969S972.03,338.16,971.963,338Z" transform="translate(-774.231 -250.525)" fill="#1a171b"/>
    <path id="Tracé_951" data-name="Tracé 951" d="M1040.828,335.42v2.164h-3.4v9.111h-2.537v-9.111h-3.4V335.42Z" transform="translate(-828.886 -250.5)" fill="#1a171b"/>
    <path id="Tracé_952" data-name="Tracé 952" d="M1099.19,335.42h2.538v11.275h-2.538Z" transform="translate(-885.654 -250.5)" fill="#1a171b"/>
    <path id="Tracé_953" data-name="Tracé 953" d="M1139,339.7a7.262,7.262,0,0,1-.292,2.14,5.464,5.464,0,0,1-.822,1.666,4.762,4.762,0,0,1-1.26,1.188,5.184,5.184,0,0,1-1.615.683.921.921,0,0,0,.359.528,2.329,2.329,0,0,0,.7.334,5.53,5.53,0,0,0,.985.2c.373.042.777.081,1.211.113l-.52,1.855a12.137,12.137,0,0,1-2.172-.252,5.5,5.5,0,0,1-1.529-.562,3.014,3.014,0,0,1-.993-.878,3.949,3.949,0,0,1-.56-1.2,5.823,5.823,0,0,1-1.872-.562,4.814,4.814,0,0,1-1.5-1.163,5.328,5.328,0,0,1-.991-1.757,7.03,7.03,0,0,1-.358-2.327,6.619,6.619,0,0,1,.455-2.547,5.426,5.426,0,0,1,1.229-1.846,5.033,5.033,0,0,1,1.789-1.122,6.124,6.124,0,0,1,2.14-.375,6.286,6.286,0,0,1,2.18.375,4.95,4.95,0,0,1,1.789,1.122,5.281,5.281,0,0,1,1.2,1.846A6.806,6.806,0,0,1,1139,339.7Zm-8.605,0a5.135,5.135,0,0,0,.2,1.5,3.418,3.418,0,0,0,.586,1.146,2.584,2.584,0,0,0,.935.74,3.191,3.191,0,0,0,2.53,0,2.584,2.584,0,0,0,.943-.74,3.421,3.421,0,0,0,.586-1.146,5.131,5.131,0,0,0,.2-1.5,5.2,5.2,0,0,0-.2-1.5,3.394,3.394,0,0,0-.586-1.155,2.6,2.6,0,0,0-.943-.741,2.981,2.981,0,0,0-1.261-.26,2.887,2.887,0,0,0-1.269.268,2.673,2.673,0,0,0-.935.749,3.391,3.391,0,0,0-.586,1.155,5.146,5.146,0,0,0-.207,1.489Z" transform="translate(-909.62 -249.149)" fill="#1a171b"/>
    <path id="Tracé_954" data-name="Tracé 954" d="M1213.77,346.922a5.664,5.664,0,0,1-2.049-.334,3.813,3.813,0,0,1-1.424-.927,3.7,3.7,0,0,1-.83-1.415,5.862,5.862,0,0,1-.268-1.815V335.42h2.538v6.8a3.82,3.82,0,0,0,.161,1.164,2.137,2.137,0,0,0,.422.78,1.513,1.513,0,0,0,.646.431,2.584,2.584,0,0,0,.838.131,2.051,2.051,0,0,0,1.505-.57,2.665,2.665,0,0,0,.578-1.938v-6.8h2.537v7.011a5.746,5.746,0,0,1-.276,1.823,3.728,3.728,0,0,1-.846,1.423,3.793,3.793,0,0,1-1.453.919A5.974,5.974,0,0,1,1213.77,346.922Z" transform="translate(-977.898 -250.5)" fill="#1a171b"/>
    <path id="Tracé_955" data-name="Tracé 955" d="M1281.23,346.695V335.42h7.614v2.132h-5.067v2.212h4.505v2.083h-4.505v2.71h5.45v2.132Z" transform="translate(-1038.298 -250.5)" fill="#1a171b"/>
    <path id="Tracé_956" data-name="Tracé 956" d="M532.045,463.875a6.421,6.421,0,0,1-.178,1.545,3.122,3.122,0,0,1-.627,1.253,3.041,3.041,0,0,1-1.2.846,5.111,5.111,0,0,1-1.912.308,5.229,5.229,0,0,1-1.862-.3,4.507,4.507,0,0,1-1.213-.646l.733-1.615a5.7,5.7,0,0,0,1,.53,3.079,3.079,0,0,0,1.213.252,1.952,1.952,0,0,0,1.513-.52,2.664,2.664,0,0,0,.472-1.791V456.31h2.065Z" transform="translate(-404.225 -351.868)" fill="#1a171b"/>
    <path id="Tracé_957" data-name="Tracé 957" d="M584.4,467.61q-.228-.667-.473-1.313t-.473-1.334H578.69q-.228.683-.465,1.342t-.463,1.31H575.63q.633-1.807,1.2-3.335t1.114-2.9q.546-1.366,1.08-2.6t1.106-2.442h1.957q.567,1.206,1.106,2.442t1.082,2.6q.546,1.368,1.13,2.9t1.211,3.335Zm-3.326-9.095q-.376.862-.854,2.1t-1,2.684h3.714q-.52-1.453-1.008-2.7T581.072,458.515Z" transform="translate(-446.638 -351.894)" fill="#1a171b"/>
    <path id="Tracé_958" data-name="Tracé 958" d="M653.288,466.477a6.284,6.284,0,0,1-2.279-.391,4.5,4.5,0,0,1-1.707-1.146,5.11,5.11,0,0,1-1.074-1.846,7.687,7.687,0,0,1-.375-2.506,6.773,6.773,0,0,1,.431-2.5,5.436,5.436,0,0,1,1.179-1.847,4.969,4.969,0,0,1,1.757-1.146,5.952,5.952,0,0,1,2.164-.391,6.92,6.92,0,0,1,1.269.107,8.718,8.718,0,0,1,.993.236,4.2,4.2,0,0,1,.7.276c.184.1.315.161.391.212l-.6,1.676a4.706,4.706,0,0,0-1.114-.463,5.368,5.368,0,0,0-1.57-.22,3.673,3.673,0,0,0-1.368.252,2.964,2.964,0,0,0-1.1.756,3.516,3.516,0,0,0-.723,1.269,5.491,5.491,0,0,0-.26,1.776,6.252,6.252,0,0,0,.2,1.644,3.609,3.609,0,0,0,.627,1.292,2.82,2.82,0,0,0,1.074.846,3.67,3.67,0,0,0,1.562.3,5.959,5.959,0,0,0,1.776-.22,7.267,7.267,0,0,0,1.058-.415l.552,1.676a2.919,2.919,0,0,1-.528.26,7.773,7.773,0,0,1-1.815.447A9.655,9.655,0,0,1,653.288,466.477Z" transform="translate(-507.198 -350.517)" fill="#1a171b"/>
    <path id="Tracé_959" data-name="Tracé 959" d="M720.845,460.572a7.238,7.238,0,0,1-.31,2.2,5.475,5.475,0,0,1-.862,1.7,4.755,4.755,0,0,1-1.292,1.179,5.167,5.167,0,0,1-1.615.646.917.917,0,0,0,.342.586,2.436,2.436,0,0,0,.74.407,6.448,6.448,0,0,0,1.025.268,11.461,11.461,0,0,0,1.211.161l-.46,1.549a8.719,8.719,0,0,1-3.335-.807,2.987,2.987,0,0,1-1.578-2.041,5.472,5.472,0,0,1-1.88-.523,4.89,4.89,0,0,1-1.521-1.156,5.328,5.328,0,0,1-1.024-1.776,7.027,7.027,0,0,1-.375-2.392,6.791,6.791,0,0,1,.439-2.545,5.347,5.347,0,0,1,1.188-1.839,4.967,4.967,0,0,1,1.749-1.13,6.069,6.069,0,0,1,4.2,0,4.786,4.786,0,0,1,1.731,1.13,5.46,5.46,0,0,1,1.18,1.847A6.824,6.824,0,0,1,720.845,460.572Zm-8.8,0a5.83,5.83,0,0,0,.228,1.684,3.691,3.691,0,0,0,.659,1.292,2.979,2.979,0,0,0,1.048.822,3.255,3.255,0,0,0,1.4.292,3.21,3.21,0,0,0,1.382-.292,3,3,0,0,0,1.05-.822,3.693,3.693,0,0,0,.659-1.292,6.343,6.343,0,0,0,0-3.368,3.684,3.684,0,0,0-.659-1.284,2.981,2.981,0,0,0-1.05-.822,3.187,3.187,0,0,0-1.382-.294,3.229,3.229,0,0,0-1.4.294,2.929,2.929,0,0,0-1.048.83,3.784,3.784,0,0,0-.659,1.292A5.75,5.75,0,0,0,712.044,460.572Z" transform="translate(-559.236 -350.501)" fill="#1a171b"/>
    <path id="Tracé_960" data-name="Tracé 960" d="M795.234,467.828a5.328,5.328,0,0,1-1.985-.333,3.641,3.641,0,0,1-1.374-.937,3.767,3.767,0,0,1-.807-1.415,5.814,5.814,0,0,1-.26-1.789V456.31h2.065v6.85a4.386,4.386,0,0,0,.171,1.31,2.271,2.271,0,0,0,.484.887,1.948,1.948,0,0,0,.749.5,2.718,2.718,0,0,0,.969.161,2.79,2.79,0,0,0,.969-.161,1.928,1.928,0,0,0,.757-.5,2.271,2.271,0,0,0,.484-.887,4.388,4.388,0,0,0,.171-1.31v-6.85h2.065v7.045a5.674,5.674,0,0,1-.255,1.786,3.9,3.9,0,0,1-.807,1.415,3.641,3.641,0,0,1-1.39.937A5.465,5.465,0,0,1,795.234,467.828Z" transform="translate(-627.069 -351.868)" fill="#1a171b"/>
    <path id="Tracé_961" data-name="Tracé 961" d="M861.94,467.584V456.31h7.239v1.741h-5.19v2.782h4.622v1.708h-4.622v3.3h5.581v1.741Z" transform="translate(-686.715 -351.868)" fill="#1a171b"/>
    <path id="Tracé_962" data-name="Tracé 962" d="M919.1,464.7a2.752,2.752,0,0,0,1.615-.375,1.235,1.235,0,0,0,.505-1.058,1.375,1.375,0,0,0-.171-.7,1.776,1.776,0,0,0-.484-.528,4.137,4.137,0,0,0-.773-.439q-.455-.2-1.042-.4c-.389-.14-.767-.3-1.13-.463a3.772,3.772,0,0,1-.959-.627,2.729,2.729,0,0,1-.919-2.148,2.944,2.944,0,0,1,1.056-2.4,4.384,4.384,0,0,1,2.881-.87,6.84,6.84,0,0,1,1.878.236,5.825,5.825,0,0,1,1.292.513l-.635,1.658a4.872,4.872,0,0,0-1.211-.471,5.668,5.668,0,0,0-1.36-.161,2.138,2.138,0,0,0-1.292.342,1.121,1.121,0,0,0-.465.959,1.262,1.262,0,0,0,.161.646,1.594,1.594,0,0,0,.439.484,3.821,3.821,0,0,0,.667.391q.383.179.838.342.8.292,1.424.594a4.037,4.037,0,0,1,1.056.715,2.8,2.8,0,0,1,.659.969,3.615,3.615,0,0,1,.228,1.358,2.819,2.819,0,0,1-1.08,2.367,5.106,5.106,0,0,1-3.165.838,8.378,8.378,0,0,1-1.277-.089,8.475,8.475,0,0,1-1.025-.22,6.784,6.784,0,0,1-.772-.27,4.288,4.288,0,0,1-.52-.252l.6-1.675a7.132,7.132,0,0,0,1.188.484,5.847,5.847,0,0,0,1.792.244Z" transform="translate(-731.643 -350.515)" fill="#1a171b"/>
    <path id="Tracé_963" data-name="Tracé 963" d="M1005.22,456.31h2.057v11.274h-2.051V462.59h-4.9v4.995H998.28V456.31h2.051v4.507h4.9Z" transform="translate(-801.039 -351.868)" fill="#1a171b"/>
    <path id="Tracé_964" data-name="Tracé 964" d="M1071.4,467.61q-.228-.667-.472-1.313c-.161-.434-.323-.878-.473-1.334h-4.762q-.228.683-.464,1.342t-.465,1.31h-2.131q.633-1.807,1.2-3.335t1.113-2.9q.546-1.366,1.08-2.6t1.106-2.442h1.957q.57,1.206,1.106,2.442t1.082,2.6q.546,1.368,1.122,2.9t1.213,3.335Zm-3.326-9.095q-.376.862-.854,2.1t-1,2.684h3.714q-.52-1.453-1.008-2.7t-.851-2.083Z" transform="translate(-854.997 -351.894)" fill="#1a171b"/>
    <path id="Tracé_965" data-name="Tracé 965" d="M1148.755,461.35a6.533,6.533,0,0,1-.455,2.547,4.807,4.807,0,0,1-1.292,1.805,5.364,5.364,0,0,1-2.017,1.074,9.185,9.185,0,0,1-2.611.35q-.683,0-1.545-.058a10.334,10.334,0,0,1-1.644-.236V455.884a9.847,9.847,0,0,1,1.66-.228q.878-.048,1.562-.048a9.462,9.462,0,0,1,2.584.333,5.33,5.33,0,0,1,2.009,1.042,4.684,4.684,0,0,1,1.292,1.789A6.622,6.622,0,0,1,1148.755,461.35Zm-7.515,3.953c.12.011.276.019.472.024s.46.008.8.008a4.116,4.116,0,0,0,3.083-1.048,4.81,4.81,0,0,0,.024-5.881,4.1,4.1,0,0,0-3.068-1.025,12.026,12.026,0,0,0-1.3.048Z" transform="translate(-919.195 -351.279)" fill="#1a171b"/>
    <path id="Tracé_966" data-name="Tracé 966" d="M1211.318,467.584q-.228-.665-.472-1.318t-.473-1.334h-4.762q-.229.683-.465,1.342t-.465,1.31h-2.131q.635-1.807,1.2-3.335t1.113-2.9q.546-1.366,1.082-2.6t1.1-2.442h1.957q.57,1.206,1.106,2.442t1.082,2.6q.546,1.368,1.13,2.9t1.213,3.335Zm-3.326-9.095q-.373.862-.854,2.1t-1,2.684h3.714q-.521-1.453-1.009-2.7T1207.992,458.49Z" transform="translate(-972.323 -351.868)" fill="#1a171b"/>
    <path id="Tracé_967" data-name="Tracé 967" d="M1279.949,456.268q.359.62.8,1.513t.895,1.88q.455.983.9,2t.822,1.88l.807-1.88q.439-1.017.895-2t.895-1.88q.438-.895.8-1.513h1.849q.15,1.239.283,2.627t.239,2.847q.108,1.453.2,2.929t.161,2.871h-2.012q-.068-1.97-.161-4.052t-.273-4.037c-.119.25-.262.547-.423.895s-.337.723-.521,1.13-.371.827-.56,1.261l-.554,1.261-.5,1.13-.391.9h-1.529q-.161-.373-.391-.911c-.152-.358-.323-.74-.5-1.147s-.363-.827-.552-1.261-.378-.851-.562-1.253l-.52-1.13c-.161-.352-.305-.646-.423-.887q-.184,1.952-.275,4.037t-.161,4.052h-2.019q.068-1.4.161-2.9t.2-2.97q.107-1.473.241-2.855t.281-2.555Z" transform="translate(-1034.894 -351.826)" fill="#1a171b"/>
    <path id="Tracé_968" data-name="Tracé 968" d="M1368.88,467.584c-.161-.444-.31-.883-.473-1.318s-.323-.878-.473-1.334h-4.762q-.228.683-.465,1.342t-.465,1.31h-2.132q.635-1.807,1.2-3.335t1.114-2.9q.543-1.366,1.08-2.6t1.106-2.442h1.956q.57,1.206,1.106,2.442t1.082,2.6q.546,1.368,1.13,2.9t1.211,3.335Zm-3.327-9.095q-.376.862-.854,2.1t-1,2.684h3.714q-.52-1.453-1.009-2.7T1365.553,458.49Z" transform="translate(-1104.441 -351.868)" fill="#1a171b"/>
    <path id="Tracé_969" data-name="Tracé 969" d="M1439.778,455.61a6.531,6.531,0,0,1,3.733.895,3.374,3.374,0,0,1-.969,5.841c.205.249.439.552.7.911s.526.746.8,1.163.531.846.78,1.292.472.87.667,1.292h-2.293c-.207-.391-.428-.783-.667-1.179s-.484-.782-.723-1.156-.484-.727-.725-1.056-.46-.627-.667-.888c-.152.011-.283.018-.391.018h-1.3V467h-2.049V455.886a11.128,11.128,0,0,1,1.594-.22Q1439.113,455.612,1439.778,455.61Zm.147,1.776c-.434,0-.835.016-1.2.048v3.645h.9a9.606,9.606,0,0,0,1.318-.081,2.762,2.762,0,0,0,.951-.294,1.432,1.432,0,0,0,.578-.568,1.906,1.906,0,0,0,.194-.912,1.831,1.831,0,0,0-.194-.878,1.462,1.462,0,0,0-.562-.568,2.671,2.671,0,0,0-.87-.3,6.5,6.5,0,0,0-1.106-.092Z" transform="translate(-1168.638 -351.281)" fill="#1a171b"/>
    <path id="Tracé_970" data-name="Tracé 970" d="M1510.533,461.35a6.535,6.535,0,0,1-.455,2.547,4.808,4.808,0,0,1-1.292,1.805,5.364,5.364,0,0,1-2.017,1.074,9.186,9.186,0,0,1-2.611.35q-.683,0-1.545-.058a10.282,10.282,0,0,1-1.642-.236V455.884a9.8,9.8,0,0,1,1.658-.228q.878-.048,1.562-.048a9.462,9.462,0,0,1,2.584.333,5.33,5.33,0,0,1,2.009,1.042,4.684,4.684,0,0,1,1.292,1.789A6.622,6.622,0,0,1,1510.533,461.35Zm-7.515,3.953c.12.011.276.019.472.024s.462.008.8.008a4.116,4.116,0,0,0,3.083-1.048,4.81,4.81,0,0,0,.024-5.881,4.1,4.1,0,0,0-3.068-1.025,12.023,12.023,0,0,0-1.3.048Z" transform="translate(-1222.555 -351.279)" fill="#1a171b"/>
    <rect id="Rectangle_2532" data-name="Rectangle 2532" width="3.628" height="11.998" transform="translate(256.819 84.762)" fill="#f7e200"/>
    <rect id="Rectangle_2533" data-name="Rectangle 2533" width="6.459" height="36.283" transform="translate(78.434 80.344)" fill="#2784da"/>
    <path id="Tracé_971" data-name="Tracé 971" d="M66.8,52.834H49.439v-9.7H71.922l3.41-6.459H42.98V73.245h6.459V59.294H63.4Z" transform="translate(0)" fill="#2784da"/>
    <path id="Tracé_972" data-name="Tracé 972" d="M71.812,306.88l-4.741,6.459h9.2v13.477A9.689,9.689,0,0,1,66.6,336.49a9.567,9.567,0,0,1-5.949-2.048l-3.822,5.206a16.13,16.13,0,0,0,25.906-12.833V306.88Z" transform="translate(-11.614 -226.568)" fill="#2784da"/>
    <path id="Tracé_973" data-name="Tracé 973" d="M342.179,307.08v13.7H330.844l-4.274,6.459h15.609v16.18h6.459V307.08Z" transform="translate(-237.796 -226.736)" fill="#2784da"/>
    <path id="Tracé_974" data-name="Tracé 974" d="M294.947,36.68h-7.57l-8.621,12.994-8.6-12.994h-7.62V73.245H269V46.117l9.768,14.323Z" transform="translate(-184.106)" fill="#f7e200"/>
    <path id="Tracé_975" data-name="Tracé 975" d="M423.23,104.908h6.459V74.44l-6.459,9.8Z" transform="translate(-318.847 -31.663)" fill="#f7e200"/>
  </g>
</svg>
